<?xml version="1.0" standalone="no"?>
<!DOCTYPE svg PUBLIC "-//W3C//DTD SVG 1.1//EN" "http://www.w3.org/Graphics/SVG/1.1/DTD/svg11.dtd" >
<!--
2013-9-30: Created.
-->
<svg>
<metadata>
Created by iconfont
</metadata>
<defs>

<font id="iconfont" horiz-adv-x="1024" >
  <font-face
    font-family="iconfont"
    font-weight="500"
    font-stretch="normal"
    units-per-em="1024"
    ascent="896"
    descent="-128"
  />
    <missing-glyph />
    
    <glyph glyph-name="bianji" unicode="&#58890;" d="M717.696 881.024c20.224 20.608 53.696 19.904 75.008-1.792l115.2-117.312c21.248-21.568 22.144-55.68 1.856-76.352L342.464 108.16c-10.112-10.24-29.44-21.76-43.52-25.6l-182.976-50.88c-27.904-7.808-44.672 9.216-37.632 37.504l47.36 190.144c3.584 14.208 14.72 34.176 24.768 44.288L717.76 881.088zM188.864 264.512a69.184 69.184 0 0 1-11.648-20.736l-37.12-148.736 142.592 39.616c5.632 1.6 17.28 8.512 21.376 12.608l567.296 577.408-115.2 117.312L188.8 264.512z m527.04 536.512l115.2-117.248-38.4-39.104-115.2 117.248 38.4 39.04v0.064z m-460.8-469.12l115.2-117.248-38.4-39.04-115.2 117.184 38.4 39.104zM64-100.352c0 15.232 12.032 27.648 27.328 27.648h841.536c14.976 0 27.136-12.416 27.136-27.648 0-15.296-12.16-27.648-27.136-27.648H91.264a26.88 26.88 0 0 0-19.2 8.064 27.904 27.904 0 0 0-8.064 19.584z"  horiz-adv-x="1024" />

    
    <glyph glyph-name="danchuangguanbianniu" unicode="&#58891;" d=""  horiz-adv-x="1024" />

    
    <glyph glyph-name="guanbitishi" unicode="&#58892;" d="M127.876049 820.606758m36.203868-36.203867l756.660824-756.660824q36.203867-36.203867 0-72.407735l0 0q-36.203867-36.203867-72.407734 0l-756.660825 756.660825q-36.203867 36.203867 0 72.407734l0 0q36.203867 36.203867 72.407735 0ZM956.8722 756.815544m-36.203867-36.203867l-756.660824-756.660824q-36.203867-36.203867-72.407735 0l0 0q-36.203867 36.203867 0 72.407734l756.660825 756.660825q36.203867 36.203867 72.407734 0l0 0q36.203867-36.203867 0-72.407735Z"  horiz-adv-x="1024" />

    
    <glyph glyph-name="jieshishuomingx" unicode="&#58895;" d="M512 896a512 512 0 1 1 0-1024A512 512 0 0 1 512 896z m0-960A448 448 0 1 0 512 832a448 448 0 0 0 0-896z m10.112 725.568a32 32 0 1 1 0-64 32 32 0 0 1 0 64z m0-149.184a31.36 31.36 0 0 1-32-30.72v-348.16c0-16.96 14.336-30.72 32-30.72a31.36 31.36 0 0 1 32 30.72v348.16a31.36 31.36 0 0 1-32 30.72z"  horiz-adv-x="1024" />

    
    <glyph glyph-name="huiyuanqiamingxiguanli" unicode="&#58896;" d="M970.752 445.44h-405.504c-28.672 0-49.152-24.576-49.152-49.152v-274.432c0-28.672 24.576-49.152 49.152-49.152h405.504c28.672 0 49.152 24.576 49.152 49.152v274.432c8.192 24.576-16.384 49.152-49.152 49.152z m-8.192-315.392h-380.928v131.072h380.928v-131.072z m0 188.416h-380.928v61.44h380.928v-61.44zM868.352 35.84c-20.48 0-32.768-12.288-32.768-32.768 0-36.864-32.768-69.632-69.632-69.632H135.168c-36.864 0-69.632 32.768-69.632 69.632V760.832c0 36.864 32.768 69.632 69.632 69.632h380.928v-212.992c0-61.44 45.056-106.496 106.496-106.496h212.992c0-12.288 12.288-28.672 32.768-28.672s28.672 12.288 32.768 28.672v24.576c0 20.48-4.096 32.768-12.288 45.056-4.096 12.288-12.288 24.576-24.576 32.768l-241.664 245.76c-8.192 8.192-20.48 20.48-32.768 24.576-12.288 8.192-28.672 12.288-49.152 12.288H135.168C65.536 896 8.192 834.56 8.192 760.832v-757.76c0-73.728 61.44-131.072 131.072-131.072h630.784c73.728 0 131.072 61.44 131.072 131.072-4.096 20.48-16.384 32.768-32.768 32.768z m-245.76 540.672c-24.576 0-40.96 20.48-40.96 40.96V801.792l229.376-229.376-188.416 4.096zM421.888 699.392c20.48 0 32.768-12.288 32.768-32.768s-12.288-32.768-32.768-32.768H163.84c-16.384 4.096-32.768 16.384-32.768 32.768s16.384 32.768 32.768 32.768h258.048z m0-188.416c20.48 0 32.768-12.288 32.768-32.768s-12.288-32.768-32.768-32.768H163.84c-12.288 0-32.768 12.288-32.768 32.768s12.288 32.768 32.768 32.768h258.048z m0-192.512c20.48 0 32.768-12.288 32.768-32.768s-12.288-32.768-32.768-32.768H163.84c-20.48 0-32.768 12.288-32.768 32.768s12.288 32.768 32.768 32.768h258.048z m0-192.512c20.48 0 32.768-12.288 32.768-32.768s-12.288-32.768-32.768-32.768H163.84c-20.48 0-32.768 12.288-32.768 32.768s12.288 32.768 32.768 32.768h258.048z"  horiz-adv-x="1024" />

    
    <glyph glyph-name="tishi" unicode="&#58899;" d="M361.63422 192.531332h298.689334c1.228612 14.333812 1.228612 27.575523 3.617581 41.431542 6.5526 32.694742 25.596092 59.246422 54.127203 81.770983 48.803216 38.36001 90.439526 80.747139 111.257681 135.966442 29.759723 79.245502 22.661074 155.965523-22.592817 229.545756-4.777937 7.166906-8.327262 14.811605-7.166906 23.002355 2.388969 14.333812 13.651249 25.050042 30.37403 28.121574a39.793392 39.793392 0 0 0 39.861647-16.3815c23.207124-35.766273 39.861648-73.580233 46.414248-114.465724 21.432461-124.772418-21.978511-230.5696-128.526512-316.982008-8.873312-7.6447-18.429186-14.811605-26.756448-23.002355-17.883137-16.859293-26.824705-36.858373-23.82143-59.792472 1.160356-9.692387-0.614306-19.45303-1.160357-29.145417v-74.126283c0-55.219303-46.414247-96.650845-110.711631-97.606432-75.150127-1.0921-150.36851-1.0921-225.518637 0-64.297384 0.955587-110.711631 42.387129-110.711632 97.606432v68.529271c0 16.859293 0.614306 33.718586-1.160356 50.100085-1.774662 21.432461-14.879862 38.291754-33.309048 52.557309C192.017448 318.327594 143.282489 375.048535 118.846752 445.625493 52.1604 641.930457 195.635029 847.381758 428.866623 888.335506A463.118631 463.118631 0 0 0 710.901432 851.477133c26.210399-12.286124 29.213673-40.885491 6.00655-54.673253-13.105199-8.19075-27.370755-8.19075-41.63631-1.569894a354.249918 354.249918 0 0 1-105.387645 32.216948c-117.810281 15.835449-219.580344-12.286124-301.692608-86.412407-68.392759-61.294109-97.606432-136.512492-89.82522-220.808957 7.09865-78.767708 48.803216-142.655555 117.195975-194.803326 40.475954-30.715311 67.846709-67.983221 67.232402-116.513413 0-5.119218-0.54605-10.784487-1.160356-16.381499z m1.774663-64.433896c0-12.286124-1.160356-24.572249 0-36.244067 1.774662-15.357655 17.26883-27.64378 35.08371-27.64378H625.308099c15.494168 0 30.37403 9.214593 33.309049 21.500718 3.003275 13.787762 2.388969 27.575523 3.003274 41.909335-99.995401 0.477794-198.762189 0.477794-298.143283 0.477794z m148.798616-255.619642h-111.257681c-17.337087 0-31.602642 9.214593-36.380579 22.524561a28.940648 28.940648 0 0 0 15.494168 35.766273 47.09681 47.09681 0 0 0 20.272105 5.119218c74.399308 0.54605 149.344667 0.54605 223.743975 0 20.818155 0 36.858373-14.333812 36.858373-31.670898 0-17.405343-16.040218-32.216948-36.858373-32.216948-37.540935 0.477794-75.013615 0.477794-111.940244 0.477794z"  horiz-adv-x="1024" />

    
    <glyph glyph-name="jiekuanjilu" unicode="&#58901;" d="M819.2 277.504c-8.192 0-110.592-12.288-110.592 4.096 0 8.192 57.344 57.344 69.632 61.44 40.96 49.152 0-20.48 0 36.864 0 167.936-20.48 335.872-180.224 335.872s-303.104-69.632-303.104-237.568c0-40.96-20.48-77.824-12.288-114.688 8.192-8.192 0-24.576-8.192-24.576-16.384-8.192-24.576 0-36.864 8.192-16.384 40.96-24.576 90.112-24.576 139.264 0 184.32 155.648 344.064 344.064 344.064 192.512 0 344.064-151.552 344.064-344.064 0-73.728-24.576-143.36-65.536-200.704-8.192-8.192-16.384-8.192-16.384-8.192zM1003.52 220.16c-36.864 49.152-122.88 122.88-253.952 65.536-40.96-16.384-86.016-40.96-122.88-65.536l-376.832 159.744H172.032c-8.192 0-16.384-8.192-16.384-16.384s8.192-24.576 24.576-24.576h61.44l344.064-143.36c-8.192-8.192-20.48-8.192-20.48-8.192s-73.728-40.96-151.552-16.384l-122.88 24.576c-8.192 0-24.576-8.192-24.576-16.384 0-4.096 8.192-24.576 16.384-24.576l122.88-24.576c98.304-24.576 184.32 16.384 184.32 16.384s110.592 61.44 184.32 98.304c86.016 49.152 151.552 0 176.128-24.576L557.056-5.12h-368.64c-4.096-4.096-24.576-8.192-24.576-28.672 0-8.192 8.192-24.576 24.576-24.576H573.44l430.08 233.472c8.192 20.48 8.192 32.768 0 45.056zM28.672-41.984h159.744v397.312H28.672zM196.608-50.176H36.864c-8.192 0-24.576 8.192-24.576 24.576V363.52c0 8.192 16.384 16.384 24.576 16.384h159.744c8.192 0 24.576-8.192 24.576-24.576v-393.216c0-4.096-12.288-12.288-24.576-12.288z m-131.072 40.96h110.592v348.16H65.536v-348.16zM552.96 789.504c-176.128 0-299.008-143.36-299.008-327.68 0-49.152 8.192-53.248 24.576-98.304 49.152-24.576 339.968-143.36 339.968-143.36l163.84 86.016c49.152 61.44 69.632 73.728 69.632 163.84 8.192 172.032-102.4 319.488-299.008 319.488zM671.744 609.28l-73.728-73.728h40.96c8.192 0 24.576 0 24.576-16.384 0-8.192-16.384-24.576-24.576-24.576h-57.344v-45.056h61.44c16.384 0 24.576 0 24.576-16.384 0-8.192-16.384-24.576-24.576-24.576h-61.44v-61.44c0-16.384-8.192-24.576-16.384-24.576s-24.576 16.384-24.576 24.576v49.152h-69.632c-16.384 0-24.576 8.192-24.576 24.576 0 8.192 8.192 16.384 24.576 16.384h65.536V490.496h-65.536c-16.384 0-24.576 8.192-24.576 24.576 0 20.48 8.192 20.48 24.576 20.48h49.152L442.368 609.28c-8.192 8.192-8.192 24.576 0 36.864s16.384 8.192 24.576 0l77.824-86.016 77.824 86.016c8.192 8.192 24.576 8.192 36.864 0 16.384-12.288 16.384-28.672 12.288-36.864z"  horiz-adv-x="1024" />

    
    <glyph glyph-name="shimingrenzheng" unicode="&#58902;" d="M942.08 687.104c0 20.48-16.384 36.864-36.864 36.864H114.688c-20.48 0-36.864-16.384-36.864-36.864v-581.632c0-20.48 16.384-36.864 36.864-36.864h794.624c20.48 0 36.864 16.384 36.864 36.864V687.104z m73.728 0v-581.632c0-61.44-45.056-110.592-106.496-110.592H114.688C53.248-5.12 8.192 44.032 8.192 105.472V687.104c0 61.44 45.056 110.592 106.496 110.592h794.624c61.44-4.096 106.496-49.152 106.496-110.592zM241.664 285.696c-12.288 0-16.384-8.192-16.384-16.384v-16.384h253.952v16.384c0 12.288-8.192 16.384-16.384 16.384H241.664z m0 73.728h217.088c49.152 0 90.112-40.96 90.112-90.112v-16.384c0-40.96-32.768-73.728-73.728-73.728H221.184c-40.96 0-73.728 32.768-73.728 73.728v16.384c4.096 49.152 40.96 90.112 94.208 90.112zM655.36 539.648h180.224c20.48 0 36.864-16.384 36.864-36.864s-16.384-36.864-36.864-36.864H655.36c-20.48 0-36.864 16.384-36.864 36.864 0 24.576 16.384 36.864 36.864 36.864z m0-180.224h180.224c20.48 0 36.864-16.384 36.864-36.864s-16.384-36.864-36.864-36.864H655.36c-20.48 0-36.864 16.384-36.864 36.864s16.384 36.864 36.864 36.864zM294.912 576.512v-53.248c0-28.672 24.576-53.248 53.248-53.248 28.672 0 53.248 24.576 53.248 53.248V576.512H294.912z m0 73.728h106.496c40.96 0 73.728-32.768 73.728-73.728v-53.248c0-69.632-57.344-126.976-126.976-126.976-69.632 0-126.976 57.344-126.976 126.976V576.512c0 40.96 32.768 73.728 73.728 73.728z"  horiz-adv-x="1024" />

    
    <glyph glyph-name="yinhangqia" unicode="&#58905;" d="M139.264 228.352h57.344v45.056H139.264v-45.056z m81.92 0h57.344v45.056H221.184v-45.056z m90.112 0H368.64v45.056H311.296v-45.056z m393.216 0h225.28v45.056h-225.28v-45.056zM933.888 756.736H90.112c-45.056 0-81.92-40.96-81.92-86.016v-536.576c0-49.152 40.96-86.016 81.92-86.016h843.776c49.152 0 81.92 40.96 81.92 86.016v532.48c0 49.152-36.864 90.112-81.92 90.112zM90.112 695.296h843.776c16.384 0 24.576-12.288 24.576-32.768v-147.456H65.536V666.624c0 16.384 12.288 28.672 24.576 28.672z m843.776-593.92H90.112c-16.384 0-24.576 12.288-24.576 32.768v323.584h897.024v-323.584c-4.096-20.48-16.384-32.768-28.672-32.768z"  horiz-adv-x="1024" />

    
    <glyph glyph-name="zhimaicon" unicode="&#58909;" d="M380.928 441.344l24.576 16.384 20.48-16.384c12.288-8.192 20.48-20.48 32.768-28.672l16.384-12.288c69.632-61.44 94.208-98.304 94.208-151.552 0-126.976-131.072-204.8-245.76-135.168-4.096 4.096-12.288 12.288-20.48 16.384-4.096 4.096-8.192 8.192-8.192 12.288-8.192 8.192-12.288 16.384-20.48 28.672-53.248 86.016-16.384 176.128 106.496 270.336zM327.68 199.68c4.096-8.192 8.192-12.288 12.288-20.48l4.096-4.096c4.096-4.096 8.192-8.192 12.288-8.192 73.728-45.056 151.552 0 151.552 81.92 0 28.672-16.384 53.248-73.728 106.496l-16.384 12.288c-4.096 4.096-8.192 8.192-16.384 12.288C315.392 310.272 294.912 252.928 327.68 199.68z m565.248 159.744c0 143.36-73.728 290.816-200.704 393.216-131.072 110.592-290.816 86.016-348.16-36.864l-8.192-4.096-4.096-4.096-49.152-45.056c-102.4-94.208-151.552-204.8-151.552-327.68 0-233.472 163.84-401.408 372.736-393.216 229.376 4.096 389.12 176.128 389.12 417.792zM286.72 748.544C364.544 908.288 569.344 936.96 729.088 801.792c139.264-114.688 225.28-278.528 225.28-442.368 0-270.336-184.32-475.136-442.368-483.328-245.76-8.192-438.272 188.416-438.272 454.656 0 139.264 57.344 266.24 172.032 372.736l40.96 45.056zM278.528 736.256l57.344-16.384c-32.768-110.592 0-204.8 102.4-290.816l-40.96-45.056c-114.688 98.304-155.648 217.088-118.784 352.256z"  horiz-adv-x="1024" />

    
    <glyph glyph-name="A" unicode="&#58911;" d=""  horiz-adv-x="1024" />

    
    <glyph glyph-name="Q" unicode="&#58912;" d=""  horiz-adv-x="1024" />

    
    <glyph glyph-name="tongyi" unicode="&#58913;" d="M425.216 148.096S703.744 684.8 1024 896c-39.424-101.12-25.216-290.688 0-391.68C867.84 468.48 546.56 67.84 442.496-128A1454.848 1454.848 0 0 1 0 246.016l168.96 161.408 256.256-259.328z"  horiz-adv-x="1024" />

    
    <glyph glyph-name="zhengxinbaogaorenzheng" unicode="&#58914;" d="M1034.24-128H194.56C87.04-128 0-40.96 0 61.44V701.44C0 808.96 87.04 896 194.56 896h844.8c102.4 0 189.44-87.04 189.44-194.56v-640c0-102.4-87.04-189.44-194.56-189.44zM194.56 819.2c-61.44 0-112.64-51.2-112.64-112.64v-640c0-61.44 51.2-112.64 112.64-112.64h844.8c61.44 0 112.64 51.2 112.64 112.64V701.44c0 61.44-51.2 112.64-112.64 112.64H194.56zM972.8 281.6H256c-30.72 0-51.2 20.48-51.2 51.2s20.48 51.2 51.2 51.2h716.8c30.72 0 51.2-20.48 51.2-51.2s-20.48-51.2-51.2-51.2zM256 358.4v-25.6 25.6zM972.8 486.4H409.6c-30.72 0-51.2 20.48-51.2 51.2s20.48 51.2 51.2 51.2h563.2c30.72 0 51.2-20.48 51.2-51.2s-20.48-51.2-51.2-51.2zM409.6 563.2V537.6v25.6zM972.8 76.8H256c-30.72 0-51.2 20.48-51.2 51.2s20.48 51.2 51.2 51.2h716.8c30.72 0 51.2-20.48 51.2-51.2s-20.48-51.2-51.2-51.2zM256 153.6v-25.6 25.6z"  horiz-adv-x="1228" />

    
    <glyph glyph-name="shuidianjiaofei" unicode="&#58915;" d="M1034.24-128H194.56C87.04-128 0-40.96 0 61.44V701.44C0 808.96 87.04 896 194.56 896h844.8c102.4 0 189.44-87.04 189.44-194.56v-640c0-102.4-87.04-189.44-194.56-189.44zM194.56 819.2c-61.44 0-112.64-51.2-112.64-112.64v-640c0-61.44 51.2-112.64 112.64-112.64h844.8c61.44 0 112.64 51.2 112.64 112.64V701.44c0 61.44-51.2 112.64-112.64 112.64H194.56zM972.8 332.8h-307.2c-30.72 0-51.2 20.48-51.2 51.2s20.48 51.2 51.2 51.2h307.2c30.72 0 51.2-20.48 51.2-51.2s-20.48-51.2-51.2-51.2z m-307.2 76.8v-25.6 25.6zM512 332.8H204.8c-30.72 0-51.2 20.48-51.2 51.2s20.48 51.2 51.2 51.2h307.2c30.72 0 51.2-20.48 51.2-51.2s-20.48-51.2-51.2-51.2zM204.8 409.6v-25.6 25.6zM225.28 373.76c-10.24 0-20.48 5.12-30.72 10.24-20.48 15.36-25.6 51.2-10.24 71.68l184.32 245.76c15.36 20.48 51.2 25.6 71.68 10.24 20.48-15.36 25.6-51.2 10.24-71.68L266.24 394.24c-10.24-10.24-20.48-20.48-35.84-20.48h-5.12zM204.8 440.32l20.48-15.36-20.48 15.36zM327.68 66.56c-10.24 0-20.48 5.12-30.72 10.24-20.48 15.36-25.6 51.2-10.24 71.68l184.32 245.76c15.36 20.48 51.2 25.6 71.68 10.24 20.48-15.36 25.6-51.2 10.24-71.68l-184.32-245.76c-10.24-15.36-25.6-20.48-40.96-20.48zM307.2 133.12l20.48-15.36-20.48 15.36zM972.8 537.6h-307.2c-30.72 0-51.2 20.48-51.2 51.2s20.48 51.2 51.2 51.2h307.2c30.72 0 51.2-20.48 51.2-51.2s-20.48-51.2-51.2-51.2z m-307.2 76.8V588.8v25.6zM972.8 128h-307.2c-30.72 0-51.2 20.48-51.2 51.2s20.48 51.2 51.2 51.2h307.2c30.72 0 51.2-20.48 51.2-51.2s-20.48-51.2-51.2-51.2z m-307.2 76.8v-25.6 25.6z"  horiz-adv-x="1228" />

    
    <glyph glyph-name="jingyingxukerenzheng" unicode="&#58916;" d="M1034.24-128H194.56C87.04-128 0-40.96 0 61.44V701.44C0 808.96 87.04 896 194.56 896h844.8c102.4 0 189.44-87.04 189.44-194.56v-640c0-102.4-87.04-189.44-194.56-189.44zM194.56 819.2c-61.44 0-112.64-51.2-112.64-112.64v-640c0-61.44 51.2-112.64 112.64-112.64h844.8c61.44 0 112.64 51.2 112.64 112.64V701.44c0 61.44-51.2 112.64-112.64 112.64H194.56zM409.6 230.4c-143.36 0-256 112.64-256 256s112.64 256 256 256 256-112.64 256-256-112.64-256-256-256z m0 435.2C312.32 665.6 230.4 583.68 230.4 486.4s81.92-179.2 179.2-179.2 179.2 81.92 179.2 179.2S506.88 665.6 409.6 665.6zM972.8 281.6h-204.8c-30.72 0-51.2 20.48-51.2 51.2s20.48 51.2 51.2 51.2h204.8c30.72 0 51.2-20.48 51.2-51.2s-20.48-51.2-51.2-51.2z m-204.8 76.8v-25.6 25.6zM972.8 486.4h-204.8c-30.72 0-51.2 20.48-51.2 51.2s20.48 51.2 51.2 51.2h204.8c30.72 0 51.2-20.48 51.2-51.2s-20.48-51.2-51.2-51.2z m-204.8 76.8V537.6v25.6zM972.8 76.8h-204.8c-30.72 0-51.2 20.48-51.2 51.2s20.48 51.2 51.2 51.2h204.8c30.72 0 51.2-20.48 51.2-51.2s-20.48-51.2-51.2-51.2z m-204.8 76.8v-25.6 25.6zM609.28-15.36l-20.48 5.12-153.6 71.68-163.84-76.8h-10.24c-25.6 0-46.08 20.48-46.08 40.96v307.2c0 20.48 15.36 40.96 40.96 40.96s40.96-15.36 40.96-40.96v-250.88l143.36 66.56 143.36-66.56V332.8c0 20.48 15.36 40.96 40.96 40.96s40.96-15.36 40.96-40.96v-312.32l-5.12-10.24c-5.12-10.24-15.36-20.48-25.6-20.48l-25.6-5.12z"  horiz-adv-x="1228" />

    
    <glyph glyph-name="shanjianfuhao" unicode="&#58918;" d="M532.48 363.52m-327.68 0a327.68 327.68 0 1 1 655.36 0 327.68 327.68 0 1 1-655.36 0ZM696.32 322.56H368.64c-24.576 0-40.96 16.384-40.96 40.96s16.384 40.96 40.96 40.96h327.68c24.576 0 40.96-16.384 40.96-40.96s-16.384-40.96-40.96-40.96z"  horiz-adv-x="1024" />

    
    <glyph glyph-name="renlianshibie" unicode="&#58919;" d="M880.64 855.04h-92.16a31.1296 31.1296 0 0 1-21.7088-8.6016 28.59008 28.59008 0 0 1 0-41.65632 31.1296 31.1296 0 0 1 21.7088-8.6016h92.16v-88.30976c0-7.5776 2.94912-15.03232 9.0112-20.84864a31.1296 31.1296 0 0 1 21.7088-8.6016 31.1296 31.1296 0 0 1 21.7088 8.6016 28.59008 28.59008 0 0 1 9.0112 20.84864V796.18048C942.08 828.66176 914.55488 855.04 880.64 855.04z m30.72-470.99904a31.1296 31.1296 0 0 1-21.7088-8.6016 28.59008 28.59008 0 0 1-9.0112-20.80768v-88.30976h-92.16a31.1296 31.1296 0 0 1-21.7088-8.6016c-1.6384-1.6384-2.53952-3.60448-3.72736-5.48864-34.69312 31.9488-73.64608 58.24512-116.736 75.69408 87.53152 50.13504 142.9504 146.55488 125.952 254.81216-16.05632 101.66272-98.304 186.61376-203.32544 207.6672a288.31744 288.31744 0 0 1-56.9344 5.65248c-145.48992 0-263.33184-112.92672-263.33184-252.3136 0-92.07808 52.14208-171.86816 129.024-215.94112-43.008-17.44896-82.04288-43.74528-116.736-75.69408-1.18784 1.88416-2.048 3.8912-3.6864 5.48864a31.1296 31.1296 0 0 1-21.74976 8.6016H143.36V354.5088a28.59008 28.59008 0 0 1-9.0112 20.80768 31.1296 31.1296 0 0 1-21.7088 8.6016 31.1296 31.1296 0 0 1-21.7088-8.6016 28.59008 28.59008 0 0 1-9.0112-20.80768v-88.30976c0-32.48128 27.52512-58.85952 61.44-58.85952h75.69408a461.90592 461.90592 0 0 1-98.18112-232.6528C116.69504-58.12224 144.01536-87.04 178.46272-87.04h667.07456c34.4064 0 61.6448 28.99968 57.58976 61.72672a461.86496 461.86496 0 0 1-98.18112 232.73472H880.64c33.91488 0 61.44 26.4192 61.44 58.90048v88.30976a28.59008 28.59008 0 0 1-9.0112 20.80768 31.1296 31.1296 0 0 1-21.7088 8.6016zM182.272-29.12256c18.59584 139.63264 102.4 255.3856 219.3408 302.77632 21.2992 8.6016 35.79904 28.09856 37.43744 50.176a58.1632 58.1632 0 0 1-29.85984 54.64064c-61.97248 35.4304-99.08224 97.36192-99.08224 165.39648 0 106.7008 90.5216 193.41312 201.89184 193.41312 14.70464 0 29.61408-1.47456 44.31872-4.5056 79.09376-15.89248 142.9504-81.18272 155.15648-158.84288 12.4928-79.38048-24.576-154.33728-96.78848-195.54304a58.44992 58.44992 0 0 1-29.81888-54.6816 58.9824 58.9824 0 0 1 37.39648-50.13504c116.85888-47.104 200.54016-162.52928 219.29984-301.62944l-659.2512-1.06496zM112.64 678.42048a31.1296 31.1296 0 0 1 21.7088 8.6016 28.59008 28.59008 0 0 1 9.0112 20.84864V796.18048h92.16a31.1296 31.1296 0 0 1 21.7088 8.6016 28.59008 28.59008 0 0 1 0 41.65632 31.1296 31.1296 0 0 1-21.7088 8.6016H143.36C109.44512 855.04 81.92 828.66176 81.92 796.18048v-88.30976c0-7.5776 2.94912-15.03232 9.0112-20.84864a31.1296 31.1296 0 0 1 21.7088-8.6016z"  horiz-adv-x="1024" />

    
    <glyph glyph-name="jiekuanzhongxin" unicode="&#58917;" d="M679.936 551.936c28.672 24.576 45.056 57.344 45.056 90.112v4.096V650.24c0 36.864-36.864 61.44-81.92 61.44-12.288 0-28.672-4.096-40.96-8.192-16.384 16.384-45.056 28.672-77.824 28.672-28.672 0-53.248-8.192-73.728-24.576-12.288 4.096-24.576 8.192-36.864 8.192-40.96 0-73.728-28.672-77.824-61.44v-20.48c4.096-28.672 16.384-53.248 36.864-73.728C217.088 474.112 163.84 240.64 163.84 134.144c0-53.248 36.864-126.976 106.496-126.976H778.24c65.536 0 122.88 61.44 122.88 110.592 0 114.688-45.056 339.968-221.184 434.176zM638.976 171.008h-90.112V117.76c0-8.192-8.192-16.384-16.384-16.384s-16.384 8.192-16.384 16.384v53.248h-90.112c-8.192 0-16.384 8.192-16.384 16.384s8.192 16.384 16.384 16.384h90.112v45.056h-90.112c-8.192 0-16.384 8.192-16.384 16.384s8.192 16.384 16.384 16.384h73.728l-77.824 139.264c-4.096 8.192 0 20.48 4.096 24.576 8.192 4.096 16.384 0 20.48-4.096l86.016-151.552 81.92 143.36c4.096 8.192 12.288 8.192 20.48 4.096s8.192-16.384 4.096-20.48L565.248 281.6h69.632c8.192 0 16.384-8.192 16.384-16.384s-8.192-16.384-16.384-16.384h-90.112v-45.056h90.112c8.192 0 16.384-8.192 16.384-16.384 4.096-8.192-4.096-16.384-12.288-16.384z"  horiz-adv-x="1024" />

    
    <glyph glyph-name="zhifubao" unicode="&#58921;" d="M861.090909 896h-698.181818C74.472727 896 0 821.527273 0 733.090909v-693.527273c0-93.090909 74.472727-167.563636 162.909091-167.563636h698.181818c88.436364 0 162.909091 74.472727 162.909091 162.909091v4.654545s-265.309091 111.709091-400.290909 176.872728c-88.436364-111.709091-204.8-176.872727-325.818182-176.872728-204.8 0-274.618182 176.872727-176.872727 293.236364 18.618182 27.927273 55.854545 51.2 111.709091 65.163636 88.436364 23.272727 228.072727-13.963636 358.4-55.854545 23.272727 41.890909 41.890909 88.436364 55.854545 139.636364H242.036364v46.545454h204.8V598.109091H200.145455v37.236364h251.345454V742.4s0 18.618182 18.618182 18.618182h102.4v-121.018182h246.690909v-41.890909h-246.690909v-69.818182h204.8c-18.618182-79.127273-51.2-153.6-83.781818-214.109091 60.509091-23.272727 116.363636-41.890909 158.254545-55.854545 148.945455-51.2 181.527273-51.2 181.527273-51.2V733.090909C1024 821.527273 949.527273 896 861.090909 896zM228.072727 337.454545c-27.927273 0-74.472727-13.963636-97.745454-37.236363-79.127273-69.818182-32.581818-195.490909 125.672727-195.490909 93.090909 0 181.527273 60.509091 256 153.6-102.4 51.2-190.836364 88.436364-283.927273 79.127272z"  horiz-adv-x="1033" />

    
    <glyph glyph-name="yinhangqiaguanli-" unicode="&#58923;" d="M843.144279 152.199005H68.776119c-15.283582 0-25.472637 10.189055-25.472636 25.472637v611.343283c0 15.283582 10.189055 25.472637 25.472636 25.472637h774.36816c15.283582 0 25.472637-10.189055 25.472636-25.472637v-611.343283c0-15.283582-10.189055-25.472637-25.472636-25.472637z m-748.895523 50.945274H817.671642v560.39801H94.248756v-560.39801zM960.318408-46.487562H150.288557c-15.283582 0-25.472637 10.189055-25.472637 25.472637v188.497512h50.945274v-163.024876h759.084577V544.477612h-91.701492v50.945274h117.174129c15.283582 0 25.472637-10.189055 25.472637-25.472637V-21.014925c0-15.283582-10.189055-25.472637-25.472637-25.472637zM84.059701 544.477612h753.99005v-50.945274H84.059701zM542.567164 355.9801H715.781095v-50.945274h-173.213931z"  horiz-adv-x="1024" />

    
    <glyph glyph-name="kefuzhongxin" unicode="&#58924;" d="M603.701493-31.20398H476.338308c-30.567164 0-61.134328 25.472637-61.134328 61.134328s25.472637 61.134328 61.134328 61.134329h91.701493c30.567164 0 56.039801-25.472637 56.039801-56.039801l157.930348 76.41791c5.094527 0 81.512438 35.661692 81.512438 137.552239V478.248756a341.333333 341.333333 0 0 1-682.666667 0v-229.253731c0-15.283582-10.189055-25.472637-25.472636-25.472637h-20.37811c-50.945274 0-91.701493 40.756219-91.701492 91.701493V427.303483c0 50.945274 35.661692 86.606965 86.606965 91.701492C150.288557 712.597015 318.40796 865.432836 517.094527 865.432836c213.970149 0 392.278607-178.308458 392.278607-392.278607v-229.253731c0-137.552239-106.985075-183.402985-112.079602-183.402986L613.890547-26.109453c0-5.094527-5.094527-5.094527-10.189054-5.094527z m-127.363185 66.228856c-5.094527 0-10.189055-5.094527-10.189054-10.189055s5.094527-10.189055 10.189054-10.189055h91.701493V29.930348s0 5.094527-5.094527 5.094528H476.338308zM129.910448 468.059701c-20.378109 0-35.661692-20.378109-35.661692-40.756218v-112.079602c0-20.378109 15.283582-35.661692 30.567164-40.756219l5.094528 193.592039zM899.18408 223.522388v50.945274c25.472637 0 40.756219 20.378109 40.756219 40.756219V427.303483c0 25.472637-20.378109 40.756219-40.756219 40.756218v50.945274c50.945274 0 91.701493-40.756219 91.701492-91.701492v-112.079602c5.094527-50.945274-40.756219-91.701493-91.701492-91.701493zM817.671642 391.641791h-147.741294c-15.283582 0-25.472637 10.189055-25.472637 25.472637v15.283582l-15.283582-25.472637c-5.094527-10.189055-15.283582-15.283582-20.378109-15.283582H211.422886c-15.283582 0-25.472637 10.189055-25.472637 25.472637V473.154229c0 178.308458 147.741294 326.049751 326.049751 326.049751s326.049751-147.741294 326.049751-326.049751v-61.134329c5.094527-10.189055-10.189055-20.378109-20.378109-20.378109z m-122.268657 50.945274h96.79602v30.567164c0 152.835821-122.268657 275.104478-275.104478 275.104477S241.99005 625.99005 241.99005 473.154229V437.492537h356.616915l50.945274 101.890548c5.094527 10.189055 15.283582 15.283582 30.567164 10.189054 10.189055-5.094527 20.378109-15.283582 20.378109-25.472637l-5.094527-81.512437zM512 106.348259c-157.930348 0-285.293532 127.363184-285.293532 285.293532v20.378109h50.945273v-20.378109c0-127.363184 106.985075-234.348259 234.348259-234.348259s234.348259 106.985075 234.348259 234.348259v15.283582h50.945273v-20.378109c0-152.835821-127.363184-280.199005-285.293532-280.199005z"  horiz-adv-x="1024" />

    
    <glyph glyph-name="youhuijuan" unicode="&#58926;" d="M644.457711 131.820896h-101.890547v-56.039801c0-10.189055-10.189055-20.378109-20.378109-20.37811s-15.283582 10.189055-15.283582 20.37811V131.820896h-101.890548c-10.189055 0-20.378109 10.189055-20.378109 20.378109s10.189055 20.378109 20.378109 20.378109h101.890548v66.228856H420.298507c-10.189055 0-20.378109 10.189055-20.378109 20.37811s10.189055 20.378109 20.378109 20.378109h66.228856l-81.512438 76.417911c-10.189055 10.189055-10.189055 20.378109 0 30.567164 5.094527 5.094527 20.378109 5.094527 25.472637 0l96.79602-96.79602 96.79602 96.79602c10.189055 10.189055 20.378109 10.189055 25.472637 0 10.189055-10.189055 10.189055-20.378109 0-25.472637l-81.512438-81.512438h66.228856c10.189055 0 20.378109-10.189055 20.378109-20.378109s-5.094527-25.472637-15.283582-25.472637h-86.606965v-61.134329h101.890547c10.189055 0 20.378109-10.189055 20.37811-20.378109s-15.283582-20.378109-30.567165-20.378109zM384.636816 575.044776c-5.094527-10.189055 0-20.378109 5.094527-25.472637l40.756219-20.378109h86.606965L410.109453 585.233831c-10.189055 0-20.378109 0-25.472637-10.189055zM613.890547 539.383085l-30.567164-10.189055h56.039801c-5.094527 5.094527-15.283582 15.283582-25.472637 10.189055zM593.512438 641.273632c-5.094527 5.094527-20.378109 0-20.37811-5.094528l-56.039801-106.985074h40.756219l45.850747 86.606965c0 10.189055 0 20.378109-10.189055 25.472637zM53.492537 529.19403h40.756219l-10.189055 25.472637 728.517413 249.63184 91.701493-275.104477h50.945274l-106.985075 310.766169-15.283582 15.283582h-20.37811L43.303483 595.422886c-5.094527-5.094527-20.378109-15.283582-20.37811-20.37811v-20.378109l10.189055-35.661692c5.094527 5.094527 10.189055 10.189055 20.378109 10.189055zM990.885572 503.721393c0 15.283582-10.189055 25.472637-25.472637 25.472637H53.492537c-10.189055 0-15.283582-5.094527-20.378109-10.189055-5.094527 0-5.094527-10.189055-5.094528-15.283582v-483.980099c0-15.283582 10.189055-25.472637 25.472637-25.472637s25.472637 10.189055 25.472637 20.378109V478.248756h860.975125v-458.507462c0-15.283582 10.189055-25.472637 25.472636-25.472637s25.472637 10.189055 25.472637 25.472637V503.721393z"  horiz-adv-x="1024" />

    
    <glyph glyph-name="wodejiangli1" unicode="&#58927;" d="M109.532338 575.044776c-15.283582 0-25.472637 10.189055-25.472637 25.472637V758.447761c0 35.661692 20.378109 66.228856 50.945274 81.512438 35.661692 15.283582 71.323383 10.189055 96.79602-15.283582l183.402985-152.835821c10.189055-10.189055 10.189055-25.472637 5.094527-35.661692-10.189055-10.189055-25.472637-10.189055-35.661691 0l-183.402985 152.835821c-15.283582 10.189055-30.567164 10.189055-40.756219 5.094528-15.283582-10.189055-25.472637-20.378109-25.472637-35.661692v-157.930348c0-15.283582-10.189055-25.472637-25.472637-25.472637zM914.467662 564.855721c-15.283582 0-25.472637 10.189055-25.472637 25.472637V758.447761c0 15.283582-10.189055 30.567164-20.37811 35.661692-15.283582 5.094527-30.567164 5.094527-40.756218-5.094528l-183.402986-152.835821c-15.283582-10.189055-30.567164-10.189055-40.756218 5.094528-10.189055 10.189055-5.094527 25.472637 5.094527 35.661691l183.402985 152.835821c25.472637 20.378109 61.134328 25.472637 96.79602 10.189055 30.567164-15.283582 50.945274-45.850746 50.945274-81.512438V590.328358c0-15.283582-15.283582-25.472637-25.472637-25.472637zM624.079602 569.950249c-15.283582 0-25.472637 10.189055-25.472637 25.472637 0 45.850746-40.756219 86.606965-86.606965 86.606965S425.393035 641.273632 425.393035 595.422886c0-15.283582-10.189055-25.472637-25.472637-25.472637s-25.472637 10.189055-25.472637 25.472637c0 76.41791 61.134328 137.552239 137.552239 137.552238s137.552239-61.134328 137.552239-137.552238c0-15.283582-10.189055-25.472637-25.472637-25.472637zM919.562189 427.303483H104.437811C53.492537 427.303483 12.736318 468.059701 12.736318 519.004975S53.492537 610.706468 104.437811 610.706468h815.124378c50.945274 0 91.701493-40.756219 91.701493-91.701493S970.507463 427.303483 919.562189 427.303483zM104.437811 559.761194c-25.472637 0-40.756219-20.378109-40.756219-40.756219s20.378109-40.756219 40.756219-40.756219h815.124378c20.378109 0 40.756219 20.378109 40.756219 40.756219s-20.378109 40.756219-40.756219 40.756219H104.437811zM817.671642-46.487562H206.328358c-66.228856 0-117.174129 50.945274-117.174129 117.174129V442.587065c0 15.283582 10.189055 25.472637 25.472637 25.472636s25.472637-10.189055 25.472636-25.472636v-371.900498c0-35.661692 30.567164-66.228856 66.228856-66.228856h611.343284c35.661692 0 66.228856 30.567164 66.228856 66.228856V442.587065c0 15.283582 10.189055 25.472637 25.472636 25.472636s25.472637-10.189055 25.472637-25.472636v-371.900498c0-66.228856-56.039801-117.174129-117.174129-117.174129zM415.20398 50.308458h-10.189055c-10.189055 5.094527-15.283582 15.283582-15.283582 25.472637V447.681592c0 15.283582 10.189055 25.472637 25.472637 25.472637s25.472637-10.189055 25.472637-25.472637V131.820896l50.945274 45.850746c10.189055 10.189055 25.472637 10.189055 35.661691 0l56.039801-50.945274V447.681592c0 15.283582 10.189055 25.472637 25.472637 25.472637s25.472637-10.189055 25.472637-25.472637v-371.900497c0-10.189055-5.094527-20.378109-15.283582-25.472637-10.189055-5.094527-20.378109 0-25.472637 5.094527L506.905473 131.820896l-76.417911-71.323384c0-10.189055-10.189055-10.189055-15.283582-10.189054z"  horiz-adv-x="1024" />

    
    <glyph glyph-name="buchongrenzhengx-1" unicode="&#58925;" d="M960.318408 294.845771v-168.119403c0-15.283582-10.189055-25.472637-25.472637-25.472637H99.343284c-15.283582 0-25.472637 10.189055-25.472637 25.472637v168.119403c-30.567164 10.189055-50.945274 40.756219-50.945274 71.323383v-239.442786c0-40.756219 35.661692-76.41791 76.417911-76.41791h835.502487c40.756219 0 76.41791 30.567164 76.417911 76.41791v239.442786c0-30.567164-20.378109-61.134328-50.945274-71.323383zM466.149254 289.751244c-10.189055 15.283582-15.283582 30.567164-20.37811 50.945273H99.343284c-15.283582 0-25.472637 10.189055-25.472637 25.472637v-71.323383c10.189055-5.094527 15.283582-5.094527 25.472637-5.094527h366.80597zM934.845771 340.696517h-45.850746c-5.094527-20.378109-10.189055-35.661692-20.37811-50.945273h66.228856c10.189055 0 15.283582 0 25.472637 5.094527v71.323383c0-15.283582-10.189055-25.472637-25.472637-25.472637zM934.845771 768.636816H99.343284C58.587065 768.636816 22.925373 732.975124 22.925373 692.218905v-326.049751c0-30.567164 20.378109-61.134328 50.945274-71.323383V692.218905c0 15.283582 10.189055 25.472637 25.472637 25.472637h835.502487c15.283582 0 25.472637-10.189055 25.472637-25.472637V294.845771c30.567164 10.189055 50.945274 40.756219 50.945274 71.323383V692.218905c0 40.756219-35.661692 76.41791-76.417911 76.417911zM654.646766 305.034826l-101.890547 101.890547c-10.189055 10.189055-10.189055 25.472637 0 35.661692s25.472637 10.189055 35.661691 0l61.134329-61.134329 96.79602 101.890548c10.189055 10.189055 25.472637 10.189055 35.661691 0s10.189055-25.472637 0-35.661692l-127.363184-142.646766zM359.164179 539.383085H155.383085c-15.283582 0-25.472637 15.283582-25.472637 25.472636S140.099502 590.328358 155.383085 590.328358h203.781094c15.283582 0 25.472637-10.189055 25.472637-25.472637S374.447761 539.383085 359.164179 539.383085zM359.164179 396.736318H155.383085c-15.283582 0-25.472637 10.189055-25.472637 25.472637s10.189055 25.472637 25.472637 25.472637h203.781094c15.283582 0 25.472637-10.189055 25.472637-25.472637s-10.189055-25.472637-25.472637-25.472637zM359.164179 187.860697H155.383085c-15.283582 0-25.472637 10.189055-25.472637 25.472636s10.189055 25.472637 25.472637 25.472637h203.781094c15.283582 0 25.472637-10.189055 25.472637-25.472637s-10.189055-25.472637-25.472637-25.472636zM669.930348 167.482587c-127.363184 0-229.253731 101.890547-229.253731 229.253731s101.890547 229.253731 229.253731 229.253732 229.253731-101.890547 229.253732-229.253732-106.985075-229.253731-229.253732-229.253731z m0 402.467662c-96.79602 0-178.308458-81.512438-178.308457-178.308458s81.512438-178.308458 178.308457-178.308458 178.308458 81.512438 178.308458 178.308458c0 101.890547-81.512438 178.308458-178.308458 178.308458z"  horiz-adv-x="1024" />

    
    <glyph glyph-name="gongshangxinxirenzheng" unicode="&#58920;" d="M1003.52-128H20.48c-5.12 0-10.24 0-15.36 5.12-5.12 5.12-5.12 10.24-5.12 15.36V875.52C0 880.64 0 885.76 5.12 890.88 10.24 890.88 15.36 896 20.48 896h977.92c5.12 0 10.24 0 15.36-5.12 5.12-5.12 10.24-10.24 10.24-15.36v-977.92c0-5.12 0-10.24-5.12-15.36-5.12-10.24-10.24-10.24-15.36-10.24zM66.56 604.16h890.88V829.44H66.56v-225.28z m0-665.6h890.88V537.6H66.56v-599.04zM675.84 655.36H768V742.4h-92.16v-87.04z m153.6 0H921.6V742.4h-92.16v-87.04zM153.6 225.28L312.32 384l46.08-46.08L199.68 179.2l-46.08 46.08zM199.68 281.6L358.4 122.88l-46.08-46.08L153.6 235.52l46.08 46.08z m225.28-204.8h204.8v66.56h-204.8V76.8z m291.84 0h204.8v66.56h-204.8V76.8z"  horiz-adv-x="1024" />

    
    <glyph glyph-name="gongchenghetongrenzheng" unicode="&#58922;" d="M860.16-128H163.84C71.68-128 0-40.96 0 61.44V706.56C0 808.96 71.68 896 163.84 896h696.32C952.32 896 1024 808.96 1024 706.56v-645.12c0-102.4-71.68-189.44-163.84-189.44zM163.84 824.32c-51.2 0-92.16-51.2-92.16-117.76v-645.12c0-66.56 40.96-117.76 92.16-117.76h696.32c51.2 0 92.16 51.2 92.16 117.76V706.56c0 66.56-40.96 117.76-92.16 117.76H163.84zM808.96 281.6H220.16c-25.6 0-46.08 20.48-46.08 51.2 0 25.6 20.48 51.2 46.08 51.2h588.8c25.6 0 46.08-20.48 46.08-51.2 0-25.6-20.48-51.2-46.08-51.2zM220.16 332.8h588.8l-5.12 5.12-583.68-5.12zM808.96 486.4H343.04c-25.6 0-46.08 25.6-46.08 51.2s20.48 51.2 46.08 51.2h465.92c25.6 0 46.08-20.48 46.08-51.2s-20.48-51.2-46.08-51.2z m-460.8 56.32l460.8-5.12-5.12 5.12H348.16zM808.96 76.8H220.16c-25.6 0-46.08 20.48-46.08 51.2 0 25.6 20.48 51.2 46.08 51.2h588.8c25.6 0 46.08-20.48 46.08-51.2s-20.48-51.2-46.08-51.2zM220.16 128l588.8-5.12-5.12 5.12H220.16z"  horiz-adv-x="1024" />

    
    <glyph glyph-name="gongchengchengbaozhengshu" unicode="&#58928;" d="M180.705882 715.294118h565.285068v-64.868779H180.705882zM180.705882 525.321267h565.285068v-64.868778H180.705882zM180.705882 145.375566h250.208145v-64.868779H180.705882zM180.705882 335.348416h250.208145v-64.868778H180.705882zM996.199095-72.39819h-9.266968v245.574661c0 46.334842-32.434389 78.769231-74.135747 78.76923h-92.669683v27.800905c0 46.334842-32.434389 78.769231-74.135747 78.769231h-134.37104c-41.701357 0-74.135747-37.067873-74.135747-78.769231v-352.144796h-9.266968c-13.900452 0-23.167421-9.266968-23.167421-27.800905 0-13.900452 9.266968-27.800905 23.167421-27.800905h467.9819c13.900452 0 23.167421 9.266968 23.167421 27.800905 0 18.533937-9.266968 27.800905-23.167421 27.800905z m-227.040724 0h-185.339366v74.135747c4.633484-4.633484 9.266968-9.266968 18.533936-9.266969h97.303168c13.900452 0 23.167421 9.266968 23.16742 27.800905s-9.266968 27.800905-23.16742 27.800905H602.352941c-9.266968 0-13.900452-4.633484-18.533936-9.266968v74.135746c4.633484-4.633484 9.266968-9.266968 18.533936-9.266968h97.303168c13.900452 0 23.167421 9.266968 23.16742 27.800905 0 13.900452-9.266968 27.800905-23.16742 27.800905H602.352941c-9.266968 0-13.900452-4.633484-18.533936-9.266968v74.135746c4.633484-4.633484 9.266968-9.266968 18.533936-9.266968h97.303168c13.900452 0 23.167421 9.266968 23.16742 27.800905 0 13.900452-9.266968 27.800905-23.16742 27.800905H602.352941c-9.266968 0-13.900452-4.633484-18.533936-9.266968v23.16742c0 13.900452 9.266968 27.800905 23.16742 27.800905H741.357466c13.900452 0 23.167421-13.900452 23.167421-27.800905v-356.77828z m166.80543 0h-115.837104V200.977376h92.669683c13.900452 0 23.167421-13.900452 23.167421-27.800905v-245.574661zM64.868778-26.063348V798.696833c0 18.533937 13.900452 32.434389 32.434389 32.434389h773.791856c18.533937 0 32.434389-13.900452 32.434389-32.434389v-481.882353h64.868778V798.696833C968.39819 849.665158 926.696833 896 871.095023 896H97.303167C41.701357 896 0 854.298643 0 798.696833v-824.760181C0-77.031674 41.701357-123.366516 97.303167-123.366516h347.511313v64.868778H97.303167c-18.533937 0-32.434389 13.900452-32.434389 32.43439zM894.262443 38.80543h-32.434389c-13.900452 0-23.167421-9.266968-23.167421-27.800905 0-13.900452 9.266968-27.800905 23.167421-27.800905h32.434389c13.900452 0 23.167421 9.266968 23.167421 27.800905 0 13.900452-9.266968 27.800905-23.167421 27.800905zM894.262443 145.375566h-32.434389c-13.900452 0-23.167421-9.266968-23.167421-27.800905 0-13.900452 9.266968-27.800905 23.167421-27.800905h32.434389c13.900452 0 23.167421 9.266968 23.167421 27.800905 0 13.900452-9.266968 27.800905-23.167421 27.800905z"  horiz-adv-x="1024" />

    
    <glyph glyph-name="renzheng" unicode="&#58929;" d="M514.56 384m-512 0a512 512 0 1 1 1024 0 512 512 0 1 1-1024 0ZM202.24 645.12c51.2 0 102.4 7.68 145.92 20.48s99.84 38.4 161.28 76.8c64-43.52 115.2-71.68 158.72-81.92s92.16-15.36 148.48-15.36V358.4c-10.24-51.2-43.52-112.64-97.28-179.2s-125.44-110.08-207.36-128c-64 15.36-125.44 51.2-186.88 110.08s-102.4 125.44-120.32 199.68V645.12zM253.44 611.84c46.08 5.12 92.16 12.8 133.12 25.6s81.92 30.72 122.88 53.76c35.84-23.04 74.24-40.96 117.76-53.76 43.52-12.8 89.6-23.04 135.68-25.6v-256c0-43.52-48.64-107.52-107.52-166.4-38.4-38.4-89.6-69.12-148.48-89.6-56.32 12.8-104.96 38.4-145.92 81.92-71.68 71.68-107.52 158.72-107.52 176.64v253.44zM304.64 576c35.84 5.12 71.68 10.24 104.96 20.48 33.28 10.24 66.56 25.6 97.28 43.52 28.16-17.92 58.88-30.72 94.72-43.52 35.84-10.24 71.68-17.92 110.08-20.48v-204.8c0-33.28-38.4-87.04-84.48-133.12-30.72-30.72-71.68-56.32-117.76-71.68-46.08 10.24-84.48 30.72-117.76 64-58.88 56.32-87.04 125.44-87.04 140.8v204.8zM417.28 453.12l56.32-51.2c40.96 33.28 69.12 58.88 92.16 74.24s51.2 35.84 92.16 61.44l17.92-23.04c-53.76-46.08-92.16-81.92-117.76-107.52s-53.76-61.44-89.6-110.08l-112.64 110.08 61.44 46.08z"  horiz-adv-x="1026" />

    
    <glyph glyph-name="baitiaoshiyongwenti" unicode="&#58930;" d="M512 384m-512 0a512 512 0 1 1 1024 0 512 512 0 1 1-1024 0ZM509.44 460.8m-256 0a256 256 0 1 1 512 0 256 256 0 1 1-512 0ZM401.92 593.92h46.08l53.76-102.4 51.2 102.4h48.64l-66.56-120.32h43.52v-20.48h-56.32V422.4h56.32v-20.48h-56.32v-51.2h-43.52v51.2h-56.32v20.48h56.32V453.12h-56.32v20.48h43.52zM181.76 232.96c-2.56-2.56-5.12-5.12-5.12-10.24l-2.56-64c0-20.48 15.36-38.4 35.84-38.4 225.28-15.36 371.2-15.36 440.32 2.56 51.2 12.8 112.64 71.68 153.6 140.8 40.96 66.56 46.08 117.76 17.92 128-35.84 12.8-46.08 10.24-58.88-5.12-5.12-5.12-23.04-33.28-25.6-38.4-15.36-20.48-30.72-38.4-48.64-56.32-38.4-35.84-76.8-64-92.16-69.12-43.52-15.36-171.52-17.92-189.44 5.12-7.68 10.24-5.12 20.48 2.56 33.28 2.56 2.56 5.12 7.68 10.24 12.8 2.56 2.56 10.24 10.24 10.24 12.8 10.24 12.8 17.92 20.48 20.48 30.72 5.12 10.24 2.56 17.92-5.12 25.6-20.48 20.48-112.64-15.36-263.68-110.08z"  horiz-adv-x="1024" />

    
    <glyph glyph-name="qitawenti" unicode="&#58931;" d="M512 384m-512 0a512 512 0 1 1 1024 0 512 512 0 1 1-1024 0ZM752.64 665.6H296.96C258.56 665.6 230.4 637.44 230.4 599.04v-458.24c0-35.84 28.16-66.56 66.56-66.56h458.24c35.84 0 66.56 28.16 66.56 66.56V599.04C819.2 637.44 788.48 665.6 752.64 665.6zM360.96 273.92h66.56v-66.56h-66.56zM360.96 404.48h66.56v-66.56h-66.56zM360.96 535.04h66.56v-66.56h-66.56zM458.24 273.92h227.84v-66.56h-227.84zM458.24 404.48h227.84v-66.56h-227.84zM458.24 535.04h227.84v-66.56h-227.84z"  horiz-adv-x="1024" />

    
    <glyph glyph-name="zaixiankefu" unicode="&#58932;" d="M512 384m-512 0a512 512 0 1 1 1024 0 512 512 0 1 1-1024 0ZM512 384m-477.866667 0a477.866667 477.866667 0 1 1 955.733334 0 477.866667 477.866667 0 1 1-955.733334 0ZM512 633.173333c-126.293333 0-225.28-102.4-225.28-228.693333S385.706667 179.2 512 179.2c126.293333 0 225.28 102.4 225.28 228.693333s-102.4 225.28-225.28 225.28v-27.306666c109.226667 0 197.973333-88.746667 197.973333-201.386667s-88.746667-201.386667-197.973333-201.386667c-109.226667 0-197.973333 88.746667-197.973333 201.386667S402.773333 605.866667 512 605.866667v27.306666zM610.986667 168.96c92.16 40.96 157.013333 133.12 157.013333 235.52 0 143.36-112.64 256-256 256-139.946667 0-256-116.053333-256-256 0-30.72 6.826667-61.44 17.066667-92.16 3.413333-6.826667 0-13.653333-6.826667-17.066667-6.826667-3.413333-13.653333 0-17.066667 6.826667v3.413333h-3.413333C204.8 308.906667 170.666667 343.04 170.666667 380.586667s27.306667 68.266667 61.44 71.68c23.893333 136.533333 139.946667 238.933333 279.893333 238.933333s256-102.4 276.48-235.52c34.133333-3.413333 61.44-34.133333 61.44-71.68 0-40.96-34.133333-71.68-71.68-71.68h-3.413333c-27.306667-75.093333-81.92-136.533333-157.013334-167.253333 0-20.48-17.066667-34.133333-34.133333-34.133334-20.48 0-34.133333 17.066667-34.133333 34.133334 0 20.48 17.066667 34.133333 34.133333 34.133333 10.24 0 20.48-3.413333 27.306667-10.24zM529.066667 285.013333c-23.893333 0-47.786667 3.413333-68.266667 3.413334-6.826667 0-13.653333 3.413333-17.066667 3.413333h-6.826666c-6.826667 3.413333-20.48 0-17.066667-3.413333 13.653333-17.066667 58.026667-30.72 105.813333-30.72 47.786667 0 92.16 13.653333 105.813334 30.72 3.413333 3.413333-6.826667 6.826667-17.066667 3.413333h-6.826667c-3.413333 0-10.24-3.413333-17.066666-3.413333-13.653333 0-34.133333-3.413333-61.44-3.413334z"  horiz-adv-x="1024" />

    
    <glyph glyph-name="huankuanwenti" unicode="&#58933;" d="M512 384m-512 0a512 512 0 1 1 1024 0 512 512 0 1 1-1024 0ZM281.6 614.4h468.48c28.16 0 51.2-23.04 51.2-51.2v-227.84c51.2-43.52 71.68-94.72 66.56-156.16-10.24-92.16-87.04-179.2-199.68-163.84-74.24 10.24-128 53.76-156.16 128h-230.4c-43.52 0-76.8 33.28-76.8 76.8V537.6c0 43.52 33.28 76.8 76.8 76.8zM801.28 560.64c0 28.16-23.04 53.76-53.76 53.76H258.56c-30.72 0-53.76-23.04-53.76-53.76v-58.88h596.48v58.88zM683.52 378.88c46.08 0 87.04-17.92 117.76-43.52v87.04H204.8v-225.28c0-28.16 23.04-53.76 53.76-53.76H512c-5.12 17.92-7.68 35.84-7.68 56.32 0 97.28 79.36 179.2 179.2 179.2zM832 256c-7.68 17.92-20.48 35.84-33.28 51.2-15.36 15.36-30.72 25.6-51.2 33.28-17.92 7.68-38.4 12.8-61.44 12.8-23.04 0-43.52-5.12-61.44-12.8s-35.84-20.48-48.64-33.28c-15.36-15.36-25.6-30.72-33.28-51.2-7.68-17.92-12.8-38.4-12.8-61.44 0-23.04 5.12-43.52 12.8-61.44s20.48-35.84 33.28-51.2c15.36-15.36 30.72-25.6 48.64-33.28 17.92-7.68 38.4-12.8 61.44-12.8 20.48 0 40.96 5.12 61.44 12.8 17.92 7.68 35.84 20.48 51.2 33.28 15.36 15.36 25.6 30.72 33.28 51.2 7.68 17.92 12.8 38.4 12.8 61.44 0 20.48-5.12 40.96-12.8 61.44z m-56.32-135.68c-10.24 25.6-33.28 43.52-61.44 43.52v-66.56c0-10.24-7.68-17.92-15.36-17.92-5.12 0-10.24 2.56-12.8 7.68l-92.16 94.72c-2.56 2.56-5.12 7.68-5.12 12.8s2.56 7.68 5.12 12.8l97.28 97.28c2.56 2.56 7.68 5.12 10.24 5.12 10.24 0 15.36-7.68 15.36-17.92v-51.2c40.96 0 76.8-33.28 76.8-76.8-5.12-15.36-10.24-30.72-17.92-43.52zM691.2 204.8m-128 0a128 128 0 1 1 256 0 128 128 0 1 1-256 0ZM604.16 207.36l94.72 61.44c5.12 5.12 12.8 2.56 17.92-2.56 2.56-2.56 2.56-5.12 2.56-7.68v-122.88c0-7.68-5.12-12.8-12.8-12.8-2.56 0-5.12 0-7.68 2.56l-94.72 61.44c-5.12 5.12-7.68 12.8-2.56 17.92l2.56 2.56zM714.24 235.52c28.16 2.56 48.64-10.24 66.56-33.28 17.92-23.04 17.92-51.2 2.56-81.92-7.68 23.04-17.92 35.84-28.16 40.96s-23.04 5.12-40.96 0v74.24z"  horiz-adv-x="1024" />

    
    <glyph glyph-name="jingyingchangdi" unicode="&#58934;" d="M829.819259 41.908148h-294.305185v117.191111L684.942222 251.259259 834.37037 159.099259v-117.191111zM493.037037 180.717037v-182.044444h379.259259v186.216296l-191.905185 117.191111zM937.528889 306.251852L682.666667 453.783704l-254.862223-147.531852a25.41037 25.41037 0 0 1-8.722963-29.582222 28.065185 28.065185 0 0 1 30.72-8.343704L682.666667 402.962963l232.865185-135.016296c4.551111 0 8.722963-4.171852 13.274074-4.171852a22.755556 22.755556 0 0 1 17.445926 8.343704 31.857778 31.857778 0 0 1-8.722963 34.133333zM119.087407 86.660741V658.583704A43.994074 43.994074 0 0 0 162.702222 702.577778h91.022222v-37.925926h43.235556v37.925926h169.14963v-37.925926h43.235555v37.925926h86.471111a43.614815 43.614815 0 0 0 43.614815-43.994074v-171.425185H682.666667V658.583704a87.608889 87.608889 0 0 1-86.850371 87.988148h-86.471111V795.117037h-43.235555v-48.545185H296.96V795.117037H253.724444v-48.545185h-91.022222A87.608889 87.608889 0 0 1 75.851852 658.583704v-571.922963a87.608889 87.608889 0 0 1 86.85037-87.988148h259.792593V42.666667H162.702222a46.648889 46.648889 0 0 0-43.614815 43.994074zM189.62963 567.561481h417.185185v-37.925925H189.62963zM189.62963 453.783704h303.407407v-37.925926H189.62963z"  horiz-adv-x="1024" />

    
    <glyph glyph-name="shuidianjiaofei1" unicode="&#58935;" d="M853.333333 757.191111h-682.666666a113.777778 113.777778 0 0 1-113.777778-113.777778v-530.962963a113.777778 113.777778 0 0 1 113.777778-113.777777h682.666666a113.777778 113.777778 0 0 1 113.777778 113.777777v530.962963a113.777778 113.777778 0 0 1-113.777778 113.777778z m56.888889-644.740741a56.888889 56.888889 0 0 0-56.888889-56.888889h-682.666666a56.888889 56.888889 0 0 0-56.888889 56.888889v530.962963a56.888889 56.888889 0 0 0 56.888889 56.888889h682.666666a56.888889 56.888889 0 0 0 56.888889-56.888889zM208.592593 377.931852m28.444444 0l549.925926 0q28.444444 0 28.444444-28.444445l0-18.962963q0-28.444444-28.444444-28.444444l-549.925926 0q-28.444444 0-28.444444 28.444444l0 18.962963q0 28.444444 28.444444 28.444445ZM208.592593 377.931852m28.444444 0l549.925926 0q28.444444 0 28.444444-28.444445l0-18.962963q0-28.444444-28.444444-28.444444l-549.925926 0q-28.444444 0-28.444444 28.444444l0 18.962963q0 28.444444 28.444444 28.444445ZM360.296296 529.635556m28.444445 0l246.518518 0q28.444444 0 28.444445-28.444445l0-18.962963q0-28.444444-28.444445-28.444444l-246.518518 0q-28.444444 0-28.444445 28.444444l0 18.962963q0 28.444444 28.444445 28.444445ZM360.296296 529.635556m28.444445 0l246.518518 0q28.444444 0 28.444445-28.444445l0-18.962963q0-28.444444-28.444445-28.444444l-246.518518 0q-28.444444 0-28.444445 28.444444l0 18.962963q0 28.444444 28.444445 28.444445ZM208.592593 226.228148m28.444444 0l549.925926 0q28.444444 0 28.444444-28.444444l0-18.962963q0-28.444444-28.444444-28.444445l-549.925926 0q-28.444444 0-28.444444 28.444445l0 18.962963q0 28.444444 28.444444 28.444444ZM208.592593 226.228148m28.444444 0l549.925926 0q28.444444 0 28.444444-28.444444l0-18.962963q0-28.444444-28.444444-28.444445l-549.925926 0q-28.444444 0-28.444444 28.444445l0 18.962963q0 28.444444 28.444444 28.444444Z"  horiz-adv-x="1024" />

    
    <glyph glyph-name="zhengxin" unicode="&#58972;" d="M791.893333 42.666667H232.106667C160.426667 42.666667 102.4 100.693333 102.4 172.373333V595.626667C102.4 667.306667 160.426667 725.333333 232.106667 725.333333h563.2c68.266667 0 126.293333-58.026667 126.293333-129.706666v-426.666667c0-68.266667-58.026667-126.293333-129.706667-126.293333zM232.106667 674.133333c-40.96 0-75.093333-34.133333-75.093334-75.093333v-426.666667c0-40.96 34.133333-75.093333 75.093334-75.093333h563.2c40.96 0 75.093333 34.133333 75.093333 75.093333V595.626667c0 40.96-34.133333 75.093333-75.093333 75.093333H232.106667zM750.933333 315.733333H273.066667c-20.48 0-34.133333 13.653333-34.133334 34.133334s13.653333 34.133333 34.133334 34.133333h477.866666c20.48 0 34.133333-13.653333 34.133334-34.133333s-13.653333-34.133333-34.133334-34.133334zM273.066667 366.933333v-17.066666 17.066666zM750.933333 452.266667H375.466667c-20.48 0-34.133333 13.653333-34.133334 34.133333s13.653333 34.133333 34.133334 34.133333h375.466666c20.48 0 34.133333-13.653333 34.133334-34.133333s-13.653333-34.133333-34.133334-34.133333z m-375.466666 51.2v-17.066667 17.066667zM750.933333 179.2H273.066667c-20.48 0-34.133333 13.653333-34.133334 34.133333s13.653333 34.133333 34.133334 34.133334h477.866666c20.48 0 34.133333-13.653333 34.133334-34.133334s-13.653333-34.133333-34.133334-34.133333zM273.066667 230.4v-17.066667 17.066667z"  horiz-adv-x="1024" />

    
    <glyph glyph-name="down" unicode="&#58946;" d="M512 113.371429l512 475.428571-58.514286 51.2L512 223.085714 58.514286 640l-58.514286-51.2z"  horiz-adv-x="1024" />

    
    <glyph glyph-name="left" unicode="&#58947;" d="M248.685714 384l475.428572 512 51.2-58.514286L358.4 384l416.914286-453.485714-51.2-58.514286z"  horiz-adv-x="1024" />

    
    <glyph glyph-name="fnochoose" unicode="&#58948;" d="M768-128h-512C117.028571-128 0-10.971429 0 128v512C0 778.971429 117.028571 896 256 896h512C906.971429 896 1024 778.971429 1024 640v-512c0-138.971429-117.028571-256-256-256z m-512 950.857143C153.6 822.857143 73.142857 742.4 73.142857 640v-512C73.142857 25.6 153.6-54.857143 256-54.857143h512c102.4 0 182.857143 80.457143 182.857143 182.857143v512C950.857143 742.4 870.4 822.857143 768 822.857143h-512z"  horiz-adv-x="1024" />

    
    <glyph glyph-name="choose" unicode="&#58949;" d="M512 896C226.742857 896 0 669.257143 0 384s226.742857-512 512-512 512 226.742857 512 512-226.742857 512-512 512z m241.371429-365.714286l-292.571429-292.571428s-7.314286 0-7.314286-7.314286h-36.571428-7.314286s-7.314286 0-7.314286 7.314286l-146.285714 146.285714c-14.628571 14.628571-14.628571 36.571429 0 51.2 21.942857 0 29.257143 7.314286 36.571429 7.314286s21.942857-7.314286 29.257142-14.628572L438.857143 310.857143l263.314286 270.628571c14.628571 14.628571 36.571429 14.628571 51.2 0s14.628571-36.571429 0-51.2z"  horiz-adv-x="1024" />

    
    <glyph glyph-name="tick" unicode="&#58951;" d="M424.228571 149.942857S702.171429 683.885714 1024 896c-36.571429-102.4-21.942857-292.571429 0-394.971429-153.6-36.571429-475.428571-438.857143-577.828571-629.028571C292.571429 62.171429 124.342857 179.2 0 245.028571l168.228571 160.914286 256-256z"  horiz-adv-x="1024" />

    
    <glyph glyph-name="off" unicode="&#58952;" d="M512 896C226.742857 896 0 669.257143 0 384s226.742857-512 512-512 512 226.742857 512 512-226.742857 512-512 512z m219.428571-665.6c21.942857-21.942857 21.942857-51.2 0-65.828571-21.942857-21.942857-51.2-21.942857-65.828571 0L512 318.171429 358.4 164.571429c-21.942857-21.942857-51.2-21.942857-65.828571 0-21.942857 14.628571-21.942857 51.2 0 65.828571L446.171429 384 292.571429 537.6c-21.942857 14.628571-21.942857 51.2 0 65.828571 21.942857 21.942857 51.2 21.942857 65.828571 0L512 449.828571 665.6 603.428571c14.628571 21.942857 51.2 21.942857 65.828571 0 21.942857-21.942857 21.942857-51.2 0-65.828571L577.828571 384 731.428571 230.4z"  horiz-adv-x="1024" />

    
    <glyph glyph-name="on" unicode="&#58953;" d="M512 661.942857l512-468.114286-58.514286-51.2L512 559.542857 58.514286 142.628571 0 193.828571z"  horiz-adv-x="1024" />

    
    <glyph glyph-name="right" unicode="&#58954;" d="M768 384L307.2 896l-51.2-58.514286L665.6 384l-409.6-453.485714 51.2-58.514286z"  horiz-adv-x="1024" />

    
    <glyph glyph-name="delete" unicode="&#58955;" d="M841.142857 40.228571H409.6c-36.571429 0-65.828571 14.628571-95.085714 36.571429L87.771429 274.285714C58.514286 296.228571 43.885714 332.8 36.571429 376.685714c0 36.571429 7.314286 73.142857 36.571428 109.714286l14.628572 14.628571 226.742857 197.485715c29.257143 21.942857 58.514286 36.571429 95.085714 36.571428h424.228571c80.457143 0 146.285714-65.828571 146.285715-146.285714v-387.657143c7.314286-95.085714-58.514286-160.914286-138.971429-160.914286zM409.6 654.628571c-14.628571 0-36.571429-7.314286-43.885714-21.942857L138.971429 442.514286l-7.314286-7.314286c-14.628571-14.628571-21.942857-36.571429-21.942857-58.514286 0-21.942857 7.314286-36.571429 21.942857-51.2L365.714286 135.314286c14.628571-14.628571 29.257143-14.628571 51.2-14.628572h424.228571c43.885714 0 73.142857 29.257143 73.142857 73.142857V581.485714c0 43.885714-29.257143 73.142857-73.142857 73.142857H409.6zM753.371429 223.085714c-14.628571 0-21.942857 7.314286-29.257143 14.628572L482.742857 479.085714c-14.628571 14.628571-7.314286 36.571429 0 51.2s36.571429 14.628571 51.2 0l241.371429-241.371428c14.628571-14.628571 14.628571-36.571429 0-51.2-7.314286-7.314286-14.628571-14.628571-21.942857-14.628572zM512 223.085714c-7.314286 0-21.942857 0-21.942857 7.314286-14.628571 14.628571-14.628571 36.571429 0 51.2L724.114286 530.285714c14.628571 14.628571 36.571429 14.628571 51.2 0 14.628571-14.628571 14.628571-36.571429 0-51.2L541.257143 237.714286c-7.314286-7.314286-21.942857-14.628571-29.257143-14.628572z"  horiz-adv-x="1024" />

    
    <glyph glyph-name="hook" unicode="&#58950;" d="M358.4 47.542857c-21.942857 0-36.571429 7.314286-51.2 21.942857L7.314286 376.685714c-7.314286 14.628571-7.314286 36.571429 0 51.2 14.628571 14.628571 36.571429 14.628571 51.2 0l299.885714-314.514285L965.485714 749.714286c14.628571 14.628571 36.571429 14.628571 51.2 0 14.628571-14.628571 14.628571-36.571429 0-51.2l-607.085714-636.342857c-14.628571-7.314286-36.571429-14.628571-51.2-14.628572z"  horiz-adv-x="1027" />

    
    <glyph glyph-name="business" unicode="&#58966;" d="M336.457143 186.514286c-80.457143 0-138.971429 65.828571-138.971429 138.971428 0 80.457143 65.828571 138.971429 138.971429 138.971429s138.971429-65.828571 138.971428-138.971429c0-73.142857-58.514286-138.971429-138.971428-138.971428z m0 212.114285c-36.571429 0-73.142857-29.257143-73.142857-73.142857 0-36.571429 29.257143-73.142857 73.142857-73.142857s73.142857 29.257143 73.142857 73.142857-36.571429 73.142857-73.142857 73.142857zM512 10.971429H153.6v36.571428c14.628571 117.028571 73.142857 175.542857 182.857143 175.542857 102.4 0 160.914286-58.514286 175.542857-168.228571v-43.885714z m-277.942857 73.142857h197.485714c-14.628571 58.514286-51.2 73.142857-95.085714 73.142857s-87.771429-14.628571-102.4-73.142857zM899.657143-128H124.342857c-58.514286 0-102.4 43.885714-102.4 102.4V471.771429c0 58.514286 43.885714 102.4 102.4 102.4h775.314286c58.514286 0 102.4-43.885714 102.4-102.4v-497.371429c7.314286-58.514286-43.885714-102.4-102.4-102.4zM124.342857 508.342857c-21.942857 0-36.571429-14.628571-36.571428-36.571428v-497.371429c0-21.942857 14.628571-36.571429 36.571428-36.571429h775.314286c21.942857 0 36.571429 14.628571 36.571428 36.571429V471.771429c0 21.942857-14.628571 36.571429-36.571428 36.571428H124.342857zM512 683.885714c-58.514286 0-102.4 43.885714-102.4 102.4S453.485714 896 512 896s102.4-43.885714 102.4-102.4S570.514286 683.885714 512 683.885714zM512 822.857143c-21.942857 0-36.571429-14.628571-36.571429-29.257143s14.628571-36.571429 36.571429-36.571429 36.571429 14.628571 36.571429 36.571429S533.942857 822.857143 512 822.857143zM607.085714 508.342857H409.6c-58.514286 0-102.4 43.885714-102.4 102.4s43.885714 102.4 102.4 102.4h197.485714c58.514286 0 102.4-43.885714 102.4-102.4s-43.885714-102.4-102.4-102.4zM409.6 647.314286c-21.942857 0-36.571429-14.628571-36.571429-36.571429s14.628571-36.571429 36.571429-36.571428h197.485714c21.942857 0 36.571429 14.628571 36.571429 36.571428s-14.628571 36.571429-36.571429 36.571429H409.6zM833.828571 340.114286H585.142857c-21.942857 0-36.571429 14.628571-36.571428 36.571428s14.628571 36.571429 36.571428 36.571429h248.685714c21.942857 0 36.571429-14.628571 36.571429-36.571429s-14.628571-36.571429-36.571429-36.571428zM833.828571 171.885714H585.142857c-21.942857 0-36.571429 14.628571-36.571428 36.571429s14.628571 36.571429 36.571428 36.571428h248.685714c21.942857 0 36.571429-14.628571 36.571429-36.571428s-14.628571-36.571429-36.571429-36.571429zM833.828571 3.657143H592.457143c-21.942857 0-36.571429 14.628571-36.571429 36.571428s14.628571 36.571429 36.571429 36.571429h248.685714c21.942857 0 36.571429-14.628571 36.571429-36.571429s-21.942857-36.571429-43.885715-36.571428z"  horiz-adv-x="1024" />

    
    <glyph glyph-name="yinhangqia1" unicode="&#58977;" d="M980.114286 610.742857v-621.714286H117.028571M1002.057143-40.228571H117.028571v51.2h841.142858V610.742857h43.885714zM109.714286 610.742857h848.457143v-599.771428H109.714286zM43.885714 778.971429h768v-285.257143H43.885714zM833.828571 471.771429H21.942857V808.228571h819.2v-336.457142zM65.828571 515.657143h724.114286V757.028571H65.828571v-241.371428zM43.885714 588.8h768v-431.542857H43.885714zM833.828571 135.314286H21.942857V610.742857h819.2v-475.428571zM65.828571 179.2h724.114286V566.857143H65.828571v-387.657143zM548.571429 325.485714h146.285714v-51.2h-146.285714z"  horiz-adv-x="1024" />

    
    <glyph glyph-name="jinjilianxirenxiawu" unicode="&#58985;" d="M892.342857-47.542857H190.171429c-58.514286 0-102.4 43.885714-102.4 102.4V764.342857C87.771429 822.857143 131.657143 866.742857 190.171429 866.742857h709.485714c58.514286 0 102.4-43.885714 102.4-102.4v-709.485714c0-58.514286-51.2-102.4-109.714286-102.4zM190.171429 793.6c-14.628571 0-29.257143-14.628571-29.257143-29.257143v-709.485714c0-14.628571 14.628571-29.257143 29.257143-29.257143h709.485714c14.628571 0 29.257143 14.628571 29.257143 29.257143V764.342857c0 14.628571-14.628571 29.257143-29.257143 29.257143H190.171429zM570.514286 376.685714c-87.771429 0-160.914286 73.142857-160.914286 160.914286s73.142857 160.914286 160.914286 160.914286c87.771429 0 160.914286-73.142857 160.914285-160.914286S658.285714 376.685714 570.514286 376.685714z m0 248.685715c-51.2 0-87.771429-43.885714-87.771429-87.771429s43.885714-87.771429 87.771429-87.771429S658.285714 486.4 658.285714 537.6s-43.885714 87.771429-87.771428 87.771429zM724.114286 106.057143H409.6c-36.571429 0-73.142857 29.257143-73.142857 73.142857v7.314286c21.942857 153.6 95.085714 226.742857 219.428571 226.742857s204.8-73.142857 234.057143-226.742857c7.314286-21.942857 0-36.571429-7.314286-51.2-7.314286-14.628571-29.257143-29.257143-43.885714-29.257143h-14.628571zM563.2 340.114286c-65.828571 0-131.657143-21.942857-146.285714-168.228572H731.428571c-36.571429 146.285714-109.714286 168.228571-168.228571 168.228572zM212.114286 501.028571H58.514286c-21.942857 0-36.571429 14.628571-36.571429 36.571429s14.628571 36.571429 36.571429 36.571429h153.6c21.942857 0 36.571429-14.628571 36.571428-36.571429s-14.628571-36.571429-36.571428-36.571429zM212.114286 252.342857H58.514286c-21.942857 0-36.571429 14.628571-36.571429 36.571429s14.628571 36.571429 36.571429 36.571428h153.6c21.942857 0 36.571429-14.628571 36.571428-36.571428s-14.628571-36.571429-36.571428-36.571429z"  horiz-adv-x="1024" />

    
    <glyph glyph-name="zhiye" unicode="&#58986;" d="M682.666667-128c-150.186667 0-273.066667 122.88-273.066667 273.066667s122.88 273.066667 273.066667 273.066666 273.066667-122.88 273.066666-273.066666-122.88-273.066667-273.066666-273.066667z m0 471.04c-109.226667 0-197.973333-88.746667-197.973334-197.973333s88.746667-197.973333 197.973334-197.973334 197.973333 88.746667 197.973333 197.973334-88.746667 197.973333-197.973333 197.973333zM621.226667 22.186667l-102.4 102.4c-13.653333 13.653333-13.653333 34.133333 0 47.786666 13.653333 13.653333 34.133333 13.653333 47.786666 0l47.786667-54.613333 109.226667 116.053333c13.653333 13.653333 34.133333 13.653333 47.786666 0 13.653333-13.653333 13.653333-34.133333 0-47.786666l-150.186666-163.84zM546.133333 657.066667H204.8c-20.48 0-34.133333 13.653333-34.133333 34.133333s13.653333 34.133333 34.133333 34.133333h341.333333c20.48 0 34.133333-13.653333 34.133334-34.133333s-13.653333-34.133333-34.133334-34.133333zM546.133333 452.266667H204.8c-20.48 0-34.133333 13.653333-34.133333 34.133333s13.653333 34.133333 34.133333 34.133333h341.333333c20.48 0 34.133333-13.653333 34.133334-34.133333s-13.653333-34.133333-34.133334-34.133333zM375.466667 8.533333H68.266667V814.08 827.733333h614.4v-327.68l-6.826667-13.653333H750.933333V814.08c0 47.786667-27.306667 81.92-61.44 81.92H61.44C27.306667 896 0 861.866667 0 814.08v-798.72c0-40.96 27.306667-75.093333 61.44-75.093333h314.026667v68.266666z"  horiz-adv-x="1024" />

    
    <glyph glyph-name="yaopinjingyingxukezheng" unicode="&#58987;" d="M914.285714-128h-804.571428C51.2-128 0-76.8 0-18.285714v804.571428C0 844.8 51.2 896 109.714286 896h804.571428c58.514286 0 109.714286-51.2 109.714286-109.714286v-804.571428c0-58.514286-51.2-109.714286-109.714286-109.714286zM109.714286 822.857143c-21.942857 0-36.571429-14.628571-36.571429-36.571429v-804.571428c0-21.942857 14.628571-36.571429 36.571429-36.571429h804.571428c21.942857 0 36.571429 14.628571 36.571429 36.571429v804.571428c0 21.942857-14.628571 36.571429-36.571429 36.571429h-804.571428zM0 603.428571h950.857143v-73.142857H0zM768 325.485714h-512c-21.942857 0-36.571429 21.942857-36.571429 43.885715s14.628571 36.571429 36.571429 36.571428h512c21.942857-7.314286 36.571429-21.942857 36.571429-36.571428s-14.628571-43.885714-36.571429-43.885715zM768 106.057143h-512c-21.942857 0-36.571429 14.628571-36.571429 36.571428s14.628571 36.571429 36.571429 36.571429h512c21.942857 0 36.571429-14.628571 36.571429-36.571429s-14.628571-36.571429-36.571429-36.571428zM256 713.142857m-73.142857 0a73.142857 73.142857 0 1 1 146.285714 0 73.142857 73.142857 0 1 1-146.285714 0ZM475.428571 713.142857m-73.142857 0a73.142857 73.142857 0 1 1 146.285715 0 73.142857 73.142857 0 1 1-146.285715 0Z"  horiz-adv-x="1024" />

    
    <glyph glyph-name="yibaozhanghu" unicode="&#58988;" d="M373.028571 252.342857c-87.771429 0-160.914286 73.142857-160.914285 160.914286s73.142857 160.914286 160.914285 160.914286c87.771429 0 160.914286-73.142857 160.914286-160.914286s-65.828571-160.914286-160.914286-160.914286z m0 248.685714c-51.2 0-87.771429-36.571429-87.771428-87.771428s36.571429-87.771429 87.771428-87.771429 87.771429 36.571429 87.771429 87.771429c7.314286 51.2-36.571429 87.771429-87.771429 87.771428zM585.142857 40.228571H168.228571v36.571429c7.314286 138.971429 80.457143 212.114286 204.8 212.114286 124.342857 0 197.485714-73.142857 204.8-212.114286l7.314286-36.571429z m-336.457143 73.142858h256c-14.628571 73.142857-51.2 102.4-131.657143 102.4-73.142857 0-109.714286-29.257143-124.342857-102.4zM914.285714-128h-804.571428C51.2-128 0-76.8 0-18.285714v804.571428C0 844.8 51.2 896 109.714286 896h804.571428c58.514286 0 109.714286-51.2 109.714286-109.714286v-804.571428c0-58.514286-51.2-109.714286-109.714286-109.714286zM109.714286 822.857143c-21.942857 0-36.571429-14.628571-36.571429-36.571429v-804.571428c0-21.942857 14.628571-36.571429 36.571429-36.571429h804.571428c21.942857 0 36.571429 14.628571 36.571429 36.571429v804.571428c0 21.942857-14.628571 36.571429-36.571429 36.571429h-804.571428zM672.914286 647.314286H402.285714C343.771429 647.314286 292.571429 691.2 292.571429 757.028571v29.257143C292.571429 844.8 343.771429 896 402.285714 896h270.628572c58.514286 0 109.714286-51.2 109.714285-109.714286v-29.257143c0-65.828571-51.2-109.714286-109.714285-109.714285zM402.285714 822.857143c-21.942857 0-36.571429-14.628571-36.571428-36.571429v-29.257143c0-21.942857 14.628571-36.571429 36.571428-36.571428h270.628572c21.942857 0 36.571429 14.628571 36.571428 36.571428v29.257143c0 21.942857-21.942857 36.571429-36.571428 36.571429H402.285714zM819.2 427.885714h-146.285714c-21.942857 0-36.571429 14.628571-36.571429 36.571429s14.628571 36.571429 36.571429 36.571428h146.285714c21.942857 0 36.571429-14.628571 36.571429-36.571428s-14.628571-36.571429-36.571429-36.571429zM819.2 237.714286h-146.285714c-21.942857 0-36.571429 14.628571-36.571429 36.571428s14.628571 36.571429 36.571429 36.571429h146.285714c21.942857 0 36.571429-14.628571 36.571429-36.571429s-14.628571-36.571429-36.571429-36.571428zM819.2 32.914286h-146.285714c-21.942857 0-36.571429 14.628571-36.571429 36.571428s14.628571 36.571429 36.571429 36.571429h146.285714c21.942857 0 36.571429-14.628571 36.571429-36.571429s-14.628571-36.571429-36.571429-36.571428z"  horiz-adv-x="1024" />

    
    <glyph glyph-name="xinrenrenzheng-renzheng" unicode="&#58883;" d="M494.280348 61.128348c-222.608696 0-405.147826 182.53913-405.147826 405.147826s182.53913 405.147826 405.147826 405.147826 405.147826-182.53913 405.147826-405.147826-182.53913-405.147826-405.147826-405.147826z m0 747.965217c-191.443478 0-342.817391-151.373913-342.817391-342.817391s155.826087-342.817391 342.817391-342.817391 342.817391 155.826087 342.817391 342.817391-155.826087 342.817391-342.817391 342.817391zM467.567304 297.093565c-8.904348 0-17.808696 4.452174-22.260869 8.904348l-129.113044 129.113044c-13.356522 13.356522-13.356522 31.165217 0 44.521739s31.165217 13.356522 44.521739 0l106.852174-106.852174 231.513044 231.513043c13.356522 13.356522 31.165217 13.356522 44.521739 0s13.356522-31.165217 0-44.521739l-253.773913-253.773913c-4.452174-8.904348-13.356522-8.904348-22.26087-8.904348zM267.219478-116.958609h-8.904348c-8.904348 4.452174-17.808696 8.904348-17.808695 22.26087l-22.26087 115.756522-115.756522 22.260869c-8.904348 0-17.808696 8.904348-22.260869 17.808696-4.452174 8.904348 0 17.808696 8.904348 26.713043l106.852174 111.304348c8.904348 8.904348 26.713043 8.904348 35.617391 0 8.904348-8.904348 8.904348-26.713043 0-35.617391l-75.686957-75.686957 84.591305-17.808695c8.904348 0 17.808696-8.904348 22.260869-22.26087l22.26087-84.591304 133.565217 133.565217c8.904348 8.904348 26.713043 8.904348 35.617392 0 8.904348-8.904348 8.904348-26.713043 0-35.617391l-169.182609-169.182609c0-4.452174-8.904348-8.904348-17.808696-8.904348zM716.889043-116.958609c-8.904348 0-13.356522 4.452174-17.808695 8.904348l-169.182609 169.182609c-8.904348 8.904348-8.904348 26.713043 0 35.617391 8.904348 8.904348 26.713043 8.904348 35.617391 0l133.565218-133.565217 17.808695 84.591304c0 8.904348 8.904348 17.808696 22.26087 22.26087l84.591304 17.808695-75.686956 75.686957c-8.904348 8.904348-8.904348 26.713043 0 35.617391 8.904348 8.904348 26.713043 8.904348 35.617391 0l106.852174-106.852174c8.904348-8.904348 8.904348-17.808696 8.904348-26.713043-4.452174-8.904348-8.904348-17.808696-22.26087-17.808696l-115.756521-22.260869-22.26087-115.756522c0-8.904348-8.904348-17.808696-17.808696-22.26087 0-4.452174 0-4.452174-4.452174-4.452174z"  horiz-adv-x="1024" />

    


  </font>
</defs>
</svg>
